<svg width="24" height="24" viewBox="0 0 24 24" fill="none" xmlns="http://www.w3.org/2000/svg">
<path d="M17.5951 21.006H17.5671C13.7254 20.9115 10.0594 19.3775 7.2951 16.708C4.62462 13.9463 3.08979 10.2816 2.99498 6.44103C2.98933 5.90303 3.20056 5.38539 3.5811 5.00503L6.2951 2.29303C6.6856 1.90265 7.3186 1.90265 7.7091 2.29303L11.7091 6.29303C12.0995 6.68353 12.0995 7.31653 11.7091 7.70703L10.1131 9.30003C10.4091 10.406 10.9544 11.4294 11.7071 12.292C12.5681 13.045 13.5903 13.5907 14.6951 13.887L16.2951 12.293C16.6856 11.9026 17.3186 11.9026 17.7091 12.293L21.7091 16.293C22.0995 16.6835 22.0995 17.3165 21.7091 17.707L18.9951 20.42C18.625 20.7939 18.1212 21.0048 17.5951 21.006ZM7.0001 4.41503H6.9951L4.9951 6.41903C5.07664 9.73769 6.40142 12.9047 8.7071 15.293C11.0955 17.5979 14.2619 18.9226 17.5801 19.005L19.5871 17L16.9951 14.415L15.7021 15.707C15.5171 15.8941 15.2652 15.9995 15.0021 16C14.9319 16.0001 14.8618 15.9927 14.7931 15.978C13.1267 15.6094 11.5795 14.8286 10.2931 13.707C9.17155 12.4206 8.39071 10.8734 8.0221 9.20703C7.95256 8.8758 8.05529 8.53187 8.2951 8.29303L9.5871 7.00003L7.0001 4.41503Z" fill="#BE98D1"/>
</svg>
