<svg xmlns="http://www.w3.org/2000/svg" xmlns:xlink="http://www.w3.org/1999/xlink" width="0" height="0" style="position:absolute">
	
		<symbol id="icon_icon_1" viewBox="0 0 16 14">
			<path d="M1.013 6.28l3.449 1.286 1.344 4.326c.058.292.41.35.643.175l1.929-1.578c.175-.175.467-.175.701 0l3.449 2.513c.233.176.584.059.643-.234L15.743.495c.058-.292-.234-.585-.527-.468L1.013 5.521c-.35.117-.35.643 0 .76zm4.618.644l6.78-4.15c.117-.059.234.116.117.175L6.975 8.15c-.175.175-.35.41-.35.701l-.176 1.403c0 .175-.292.234-.35 0l-.702-2.572c-.176-.292-.059-.643.234-.76z"></path>
		</symbol>
	
		<symbol id="icon_icon_2" viewBox="0 0 13 13">
			<path d="M12.75 2.364c0-1.123-.99-2.114-2.114-2.114H2.114C.991.25 0 1.24 0 2.364v8.522C0 12.009.99 13 2.114 13h4.294V8.177H4.823V6.063h1.585v-.858c0-1.454 1.057-2.709 2.378-2.709h1.718V4.61H8.786c-.198 0-.396.198-.396.595v.858h2.114v2.114H8.39V13h2.246c1.123 0 2.114-.99 2.114-2.114V2.364z"></path>
		</symbol>
	
		<symbol id="icon_icon_3" viewBox="0 0 17 10">
			<path d="M16.355 8.836c0-.062-.063-.062-.063-.124-.249-.498-.81-1.12-1.556-1.806-.374-.311-.56-.56-.685-.685-.187-.249-.187-.436-.125-.685.063-.187.312-.498.747-1.058.25-.312.374-.498.56-.685.935-1.246 1.37-2.055 1.246-2.429l-.062-.062c-.062-.062-.125-.124-.25-.124-.124-.063-.31-.063-.497 0H12.868l-.063.062c-.062.062-.062.062-.062.124-.249.685-.56 1.246-.872 1.868-.186.312-.373.623-.56.872-.187.25-.311.436-.436.56-.124.125-.249.187-.311.312-.063.062-.187.124-.187.062-.062 0-.125 0-.125-.062l-.186-.187c-.063-.062-.063-.187-.125-.311v-.312-.373-.374-.685-.56-.436-.374c0-.062-.062-.186-.062-.249L9.692.93C9.63.866 9.505.866 9.443.804a5.585 5.585 0 0 0-1.12-.125c-.997 0-1.682.063-1.931.187-.125.063-.25.125-.311.25-.125.124-.125.186-.063.186.312.062.56.187.685.374l.062.124c.063.063.063.187.125.374s.062.373.062.623v.996c0 .311-.062.498-.062.685 0 .187-.062.311-.125.373-.062.125-.062.187-.124.187 0 0 0 .062-.062.062-.063 0-.125.063-.25.063a.472.472 0 0 1-.248-.125.75.75 0 0 1-.312-.311 2.173 2.173 0 0 1-.373-.56c-.125-.25-.312-.499-.436-.872l-.125-.25c-.062-.124-.187-.373-.311-.684-.125-.312-.25-.56-.374-.872a.86.86 0 0 0-.187-.25h-.062s-.062-.061-.124-.061c-.063 0-.125-.063-.187-.063H1.348c-.249 0-.373.063-.436.125l-.062.062v.125c0 .062 0 .124.062.249.312.747.685 1.494 1.059 2.241.374.685.747 1.308.996 1.744.312.436.56.872.872 1.245.311.374.498.623.56.747l.25.25.186.186c.125.125.312.312.56.498.25.187.561.374.872.56.312.188.685.312 1.059.437.436.124.81.186 1.183.124h.934a.565.565 0 0 0 .436-.187l.062-.062c0-.062.062-.062.062-.124v-.25c0-.249 0-.435.063-.622.062-.187.062-.311.124-.436a.86.86 0 0 1 .187-.25l.124-.124h.063c.124-.062.311 0 .436.125.187.124.373.311.498.498.124.187.311.374.56.623.25.249.436.436.56.498l.187.124c.125.063.25.125.436.187.187.062.312.062.436.062l2.117-.062c.187 0 .374-.062.498-.124.125-.063.187-.125.187-.25v-.248c-.124-.125-.124-.187-.124-.25z"></path>
		</symbol>
	
		<symbol id="icon_icon_4" viewBox="0 0 13 13">
			<path d="M10.936 0H1.814A1.78 1.78 0 0 0 0 1.814v9.122a1.78 1.78 0 0 0 1.814 1.814h9.122a1.78 1.78 0 0 0 1.814-1.814V1.814A1.78 1.78 0 0 0 10.936 0zM6.375 10.2c2.109 0 3.825-1.667 3.825-3.678 0-.343-.049-.735-.147-1.03h1.079v5.198c0 .246-.196.49-.49.49H2.108a.491.491 0 0 1-.49-.49V5.443h1.127a3.733 3.733 0 0 0-.147 1.03C2.55 8.533 4.266 10.2 6.375 10.2zm0-1.471c-1.373 0-2.452-1.079-2.452-2.403s1.079-2.403 2.452-2.403 2.452 1.079 2.452 2.403c0 1.373-1.079 2.403-2.452 2.403zm4.708-5.247c0 .294-.245.54-.54.54H9.17a.544.544 0 0 1-.54-.54V2.158c0-.295.246-.54.54-.54h1.373c.295 0 .54.245.54.54v1.324z"></path>
		</symbol>
	
</svg>
