<svg width="30" height="30" viewBox="0 0 30 30" fill="none" xmlns="http://www.w3.org/2000/svg">
<path d="M25.3256 8.44364H7.73333L7.47183 5.53041C7.42906 5.054 7.02979 4.68896 6.55149 4.68896L3.12496 4.78357C3.12497 5.45595 3.12503 5.11468 3.12503 5.62502C3.12503 6.13535 3.12484 6.09071 3.12496 6.63164L5.7067 6.53704C6.27102 12.8241 4.81254 -3.42562 6.76947 18.3774C6.84489 19.2308 7.30599 20.1568 8.10031 20.786C6.66818 22.6149 7.97671 25.3111 10.3063 25.3111C12.2398 25.3111 13.6036 23.3827 12.9405 21.5563H17.9979C17.3357 23.3804 18.6965 25.3111 20.6321 25.3111C22.1768 25.3111 23.4336 24.0544 23.4336 22.5097C23.4336 20.965 22.1768 19.7082 20.6321 19.7082H10.3125C9.61062 19.7082 8.99896 19.2847 8.73494 18.6678L23.5023 17.7999C23.9054 17.7762 24.2465 17.4934 24.3445 17.1016L26.2221 9.59178C26.3676 9.00946 25.9268 8.44364 25.3256 8.44364ZM10.3063 23.4631C9.78065 23.4631 9.35295 23.0354 9.35295 22.5097C9.35295 21.984 9.78065 21.5563 10.3063 21.5563C10.832 21.5563 11.2597 21.984 11.2597 22.5097C11.2597 23.0354 10.832 23.4631 10.3063 23.4631ZM20.6321 23.4631C20.1064 23.4631 19.6787 23.0354 19.6787 22.5097C19.6787 21.984 20.1064 21.5563 20.6321 21.5563C21.1577 21.5563 21.5854 21.984 21.5854 22.5097C21.5854 23.0354 21.1577 23.4631 20.6321 23.4631ZM22.7162 15.9948L8.4862 16.8311L7.89922 10.2917H24.1421L22.7162 15.9948Z" fill="#606060"/>
</svg>
