<svg width="25" height="25" viewBox="0 0 25 25" fill="none" xmlns="http://www.w3.org/2000/svg">
<path d="M18.9938 24.2575H18.9588C14.1567 24.1393 9.5741 22.2218 6.11875 18.885C2.78065 15.4328 0.862119 10.8519 0.743608 6.05123C0.736536 5.37872 1.00058 4.73168 1.47625 4.25623L4.86875 0.866227C5.35688 0.37825 6.14813 0.37825 6.63625 0.866227L11.6363 5.86623C12.1242 6.35435 12.1242 7.1456 11.6363 7.63373L9.64125 9.62498C10.0113 11.0074 10.6928 12.2867 11.6338 13.365C12.7101 14.3062 13.9878 14.9883 15.3688 15.3587L17.3688 13.3662C17.8569 12.8783 18.6481 12.8783 19.1363 13.3662L24.1363 18.3662C24.6242 18.8544 24.6242 19.6456 24.1363 20.1337L20.7438 23.525C20.2812 23.9924 19.6513 24.256 18.9938 24.2575ZM5.75 3.51873H5.74375L3.24375 6.02373C3.34568 10.172 5.00165 14.1309 7.88375 17.1162C10.8693 19.9973 14.8273 21.6531 18.975 21.7562L21.4838 19.25L18.2438 16.0187L16.6275 17.6337C16.3963 17.8675 16.0813 17.9994 15.7525 18C15.6647 18 15.5771 17.9908 15.4913 17.9725C13.4083 17.5117 11.4742 16.5357 9.86625 15.1337C8.46432 13.5257 7.48827 11.5917 7.0275 9.50873C6.94058 9.09468 7.06899 8.66477 7.36875 8.36623L8.98375 6.74998L5.75 3.51873Z" fill="#BE98D1"/>
</svg>
