<svg width="26" height="26" viewBox="0 0 26 26" fill="none" xmlns="http://www.w3.org/2000/svg">
<path d="M13 25.5001C11.1101 25.5054 9.24403 25.0777 7.545 24.25C6.92319 23.9476 6.32741 23.5943 5.76375 23.1938L5.5925 23.0688C4.04228 21.9245 2.77484 20.4403 1.8875 18.73C0.969673 16.9598 0.493637 14.9939 0.49994 13C0.49994 6.09644 6.09644 0.5 13 0.5C19.9036 0.5 25.5001 6.09644 25.5001 13C25.5063 14.993 25.0307 16.958 24.1138 18.7275C23.2276 20.4368 21.962 21.9205 20.4138 23.065C19.8297 23.4925 19.2099 23.8689 18.5613 24.19L18.4613 24.24C16.7612 25.0721 14.8928 25.5032 13 25.5001ZM13 19.25C11.1268 19.2463 9.40958 20.2925 8.55375 21.9587C11.3555 23.3465 14.6445 23.3465 17.4463 21.9587V21.9525C16.5894 20.2881 14.872 19.2443 13 19.25ZM13 16.75C15.7076 16.7535 18.2043 18.2126 19.5363 20.57L19.555 20.5537L19.5725 20.5388L19.5513 20.5575L19.5388 20.5675C22.7 17.8364 23.8304 13.4279 22.3733 9.51263C20.9163 5.59735 17.1789 3.00039 13.0013 3.00039C8.82364 3.00039 5.08624 5.59735 3.62919 9.51263C2.17214 13.4279 3.30251 17.8364 6.46375 20.5675C7.79658 18.2113 10.293 16.7533 13 16.75ZM13 15.5C10.2386 15.5 8 13.2614 8 10.5C8 7.73858 10.2386 5.5 13 5.5C15.7614 5.5 18 7.73858 18 10.5C18 11.8261 17.4732 13.0979 16.5355 14.0355C15.5979 14.9732 14.3261 15.5 13 15.5ZM13 8C11.6193 8 10.5 9.11929 10.5 10.5C10.5 11.8807 11.6193 13 13 13C14.3807 13 15.5 11.8807 15.5 10.5C15.5 9.11929 14.3807 8 13 8Z" fill="#BE98D1"/>
</svg>
