<?xml version="1.0" encoding="UTF-8" standalone="no"?>
<!-- Created with Inkscape (http://www.inkscape.org/) -->

<svg
   xmlns:dc="http://purl.org/dc/elements/1.1/"
   xmlns:cc="http://creativecommons.org/ns#"
   xmlns:rdf="http://www.w3.org/1999/02/22-rdf-syntax-ns#"
   xmlns:svg="http://www.w3.org/2000/svg"
   xmlns="http://www.w3.org/2000/svg"
   xmlns:sodipodi="http://sodipodi.sourceforge.net/DTD/sodipodi-0.dtd"
   xmlns:inkscape="http://www.inkscape.org/namespaces/inkscape"
   id="svg2"
   version="1.1"
   inkscape:version="0.91 r13725"
   xml:space="preserve"
   width="500.00125"
   height="150.05624"
   viewBox="0 0 500.00125 150.05624"
   sodipodi:docname="logo_color.svg"><metadata
     id="metadata8"><rdf:RDF><cc:Work
         rdf:about=""><dc:format>image/svg+xml</dc:format><dc:type
           rdf:resource="http://purl.org/dc/dcmitype/StillImage" /><dc:title></dc:title></cc:Work></rdf:RDF></metadata><defs
     id="defs6"><clipPath
       clipPathUnits="userSpaceOnUse"
       id="clipPath28"><path
         d="m 0,120.045 400.001,0 L 400.001,0 0,0 0,120.045 Z"
         id="path30"
         inkscape:connector-curvature="0" /></clipPath></defs><sodipodi:namedview
     pagecolor="#ffffff"
     bordercolor="#666666"
     borderopacity="1"
     objecttolerance="10"
     gridtolerance="10"
     guidetolerance="10"
     inkscape:pageopacity="0"
     inkscape:pageshadow="2"
     inkscape:window-width="640"
     inkscape:window-height="480"
     id="namedview4"
     showgrid="false"
     inkscape:zoom="0.76399809"
     inkscape:cx="250.00063"
     inkscape:cy="75.028122"
     inkscape:window-x="0"
     inkscape:window-y="0"
     inkscape:window-maximized="0"
     inkscape:current-layer="g10" /><g
     id="g10"
     inkscape:groupmode="layer"
     inkscape:label="Vector Smart Object"
     transform="matrix(1.25,0,0,-1.25,0,150.05625)"><g
       id="g12"
       transform="translate(351.4131,106.1343)"><path
         d="M 0,0 0,-51.239 -33.912,0 l -3.026,0 0,-54.626 -43.725,0 0,23.696 30.393,0 0,3.556 -30.393,0 0,23.819 40.27,0 0,3.555 -43.824,0 0,-58.181 50.836,0 0,50.939 33.711,-50.939 3.225,0 0,54.626 20.74,0 0,-54.626 3.555,0 0,54.626 20.738,0 0,3.555 L 0,0 Z"
         style="fill:#373535;fill-opacity:1;fill-rule:nonzero;stroke:none"
         id="path14"
         inkscape:connector-curvature="0" /></g><g
       id="g16"
       transform="translate(202.0654,47.9531)"><path
         d="m 0,0 3.555,0 0,37.13 L 0,44.278 0,0 Z"
         style="fill:#373535;fill-opacity:1;fill-rule:evenodd;stroke:none"
         id="path18"
         inkscape:connector-curvature="0" /></g><g
       id="g20"
       transform="translate(259.0478,85.3857)"><path
         d="m 0,0 0,-37.433 3.555,0 0,44.581 L 0,0 Z"
         style="fill:#373535;fill-opacity:1;fill-rule:evenodd;stroke:none"
         id="path22"
         inkscape:connector-curvature="0" /></g><g
       id="g24"><g
         id="g26"
         clip-path="url(#clipPath28)"><g
           id="g32"
           transform="translate(158.2148,51.5088)"><path
             d="m 0,0 0,23.695 29.948,0 0,3.556 -29.948,0 0,23.819 38.773,0 0,3.556 -42.144,0 -26.228,-52.809 -26.28,52.809 -3.971,0 2.349,-4.724 c -4.719,3.305 -10.456,5.254 -16.642,5.254 -10.996,0 -20.584,-6.134 -25.527,-15.158 l 0,14.628 -3.139,0 -26.152,-51.676 -26.155,51.676 -3.099,0 0,-58.181 3.556,0 0,49.405 25.006,-49.405 1.383,0 25.045,49.482 0,-49.482 3.555,0 0,15.698 c 4.943,-9.024 14.531,-15.157 25.527,-15.157 15.659,0 28.459,12.441 29.054,27.956 l 14.193,-28.497 2.601,0 24.739,49.81 0,-49.811 42.331,0 0,3.556 L 0,0 Z m -48.614,26.071 c 0,-14.078 -11.452,-25.529 -25.529,-25.529 -14.036,0 -25.459,11.383 -25.527,25.404 l 0,0.25 c 0.068,14.019 11.491,25.404 25.527,25.404 9.794,0 18.314,-5.548 22.592,-13.664 l 0.543,-1.088 c 1.531,-3.278 2.394,-6.927 2.394,-10.777"
             style="fill:#373535;fill-opacity:1;fill-rule:evenodd;stroke:none"
             id="path34"
             inkscape:connector-curvature="0" /></g><g
           id="g36"
           transform="translate(262.6514,106.1347)"><path
             d="M 0,0 -3.971,0 -30.469,-53.37 -57.018,0 -60.986,0 -30.465,-61.361 0,0 Z"
             style="fill:#ed2790;fill-opacity:1;fill-rule:evenodd;stroke:none"
             id="path38"
             inkscape:connector-curvature="0" /></g><g
           id="g40"
           transform="translate(232.1182,67.4638)"><path
             d="m 0,0 27.043,52.581 2.123,0 -29.164,-56.705 -29.211,56.705 2.123,0 L 0,0 Z"
             style="fill:#00b0f0;fill-opacity:1;fill-rule:evenodd;stroke:none"
             id="path42"
             inkscape:connector-curvature="0" /></g><g
           id="g44"
           transform="translate(232.1182,78.0781)"><path
             d="m 0,0 21.584,41.967 2.123,0 -23.705,-46.091 -23.744,46.091 2.123,0 L 0,0 Z"
             style="fill:#00a85a;fill-opacity:1;fill-rule:evenodd;stroke:none"
             id="path46"
             inkscape:connector-curvature="0" /></g><g
           id="g48"
           transform="translate(232.1182,88.6923)"><path
             d="m 0,0 16.125,31.353 2.123,0 -18.246,-35.477 -18.275,35.477 2.123,0 L 0,0 Z"
             style="fill:#00a85a;fill-opacity:1;fill-rule:evenodd;stroke:none"
             id="path50"
             inkscape:connector-curvature="0" /></g><g
           id="g52"
           transform="translate(232.1182,99.3056)"><path
             d="m 0,0 10.666,20.739 2.123,0 -12.787,-24.862 -12.809,24.862 2.123,0 L 0,0 Z"
             style="fill:#a9d046;fill-opacity:1;fill-rule:evenodd;stroke:none"
             id="path54"
             inkscape:connector-curvature="0" /></g><g
           id="g56"
           transform="translate(232.1182,109.9199)"><path
             d="m 0,0 5.207,10.125 2.123,0 -7.328,-14.248 -7.34,14.248 2.123,0 L 0,0 Z"
             style="fill:#e8e040;fill-opacity:1;fill-rule:evenodd;stroke:none"
             id="path58"
             inkscape:connector-curvature="0" /></g><g
           id="g60"
           transform="translate(233.9893,120.0449)"><path
             d="M 0,0 -1.869,-3.634 -3.742,0 0,0 Z"
             style="fill:#e8e040;fill-opacity:1;fill-rule:evenodd;stroke:none"
             id="path62"
             inkscape:connector-curvature="0" /></g><g
           id="g64"
           transform="translate(66.5395,21.6054)"><path
             d="m 0,0 c -0.428,0.867 -0.993,1.571 -1.7,2.116 -0.706,0.543 -1.546,0.931 -2.516,1.163 -0.973,0.231 -2.013,0.347 -3.123,0.347 -0.856,0 -1.747,-0.087 -2.673,-0.261 -0.925,-0.173 -1.765,-0.48 -2.515,-0.92 -0.753,-0.439 -1.373,-1.022 -1.859,-1.752 -0.485,-0.728 -0.728,-1.649 -0.728,-2.758 0,-1.111 0.249,-2.002 0.745,-2.673 0.499,-0.671 1.146,-1.215 1.944,-1.63 0.8,-0.417 1.708,-0.742 2.726,-0.973 1.016,-0.231 2.057,-0.474 3.122,-0.728 1.157,-0.302 2.251,-0.591 3.28,-0.869 1.03,-0.278 1.926,-0.648 2.691,-1.11 0.764,-0.464 1.37,-1.077 1.821,-1.84 0.452,-0.763 0.677,-1.793 0.677,-3.089 0,-1.18 -0.254,-2.186 -0.764,-3.02 -0.508,-0.832 -1.179,-1.522 -2.013,-2.064 -0.832,-0.544 -1.769,-0.937 -2.81,-1.179 -1.042,-0.244 -2.095,-0.365 -3.16,-0.365 -1.411,0 -2.711,0.161 -3.904,0.486 -1.192,0.323 -2.221,0.838 -3.088,1.544 -0.868,0.705 -1.54,1.613 -2.013,2.724 -0.474,1.112 -0.7,2.452 -0.677,4.025 l 0.694,0 c 0,-1.481 0.219,-2.736 0.659,-3.764 0.44,-1.03 1.058,-1.869 1.858,-2.516 0.799,-0.649 1.746,-1.118 2.846,-1.406 1.098,-0.29 2.307,-0.434 3.625,-0.434 0.972,0 1.939,0.11 2.898,0.33 0.96,0.22 1.824,0.573 2.586,1.058 0.765,0.487 1.383,1.111 1.858,1.875 0.472,0.763 0.711,1.676 0.711,2.742 0,1.249 -0.273,2.238 -0.817,2.966 -0.542,0.73 -1.236,1.307 -2.081,1.737 -0.844,0.426 -1.78,0.751 -2.81,0.971 -1.032,0.219 -2.021,0.446 -2.969,0.676 -0.993,0.232 -1.991,0.474 -2.984,0.729 -0.995,0.255 -1.892,0.608 -2.69,1.058 -0.798,0.45 -1.441,1.053 -1.927,1.805 -0.485,0.752 -0.728,1.73 -0.728,2.934 0,1.226 0.255,2.249 0.765,3.071 0.508,0.82 1.168,1.474 1.977,1.961 0.81,0.485 1.718,0.832 2.724,1.041 1.007,0.208 2.006,0.312 3.003,0.312 1.225,0 2.353,-0.133 3.382,-0.4 1.03,-0.264 1.933,-0.693 2.708,-1.283 0.775,-0.591 1.394,-1.366 1.856,-2.325 0.462,-0.96 0.73,-2.135 0.8,-3.523 l -0.696,0 C 0.666,-1.938 0.429,-0.868 0,0"
             style="fill:#373535;fill-opacity:1;fill-rule:nonzero;stroke:none"
             id="path66"
             inkscape:connector-curvature="0" /></g><g
           id="g68"
           transform="translate(90.0884,25.3349)"><path
             d="m 0,0 0,-15.548 c 0,-3.332 -0.775,-5.796 -2.325,-7.391 -1.55,-1.597 -3.806,-2.396 -6.768,-2.396 -2.963,0 -5.219,0.799 -6.768,2.396 -1.551,1.595 -2.324,4.059 -2.324,7.391 l 0,15.548 0.694,0 0,-15.548 c 0,-2.984 0.68,-5.252 2.047,-6.803 1.365,-1.549 3.483,-2.325 6.351,-2.325 2.869,0 4.987,0.776 6.351,2.325 1.366,1.551 2.048,3.819 2.048,6.803 L -0.694,0 0,0 Z"
             style="fill:#373535;fill-opacity:1;fill-rule:nonzero;stroke:none"
             id="path70"
             inkscape:connector-curvature="0" /></g><g
           id="g72"
           transform="translate(103.8652,12.5283)"><path
             d="M 0,0 C 0.973,0 1.875,0.134 2.709,0.399 3.541,0.665 4.264,1.06 4.878,1.581 5.491,2.1 5.97,2.73 6.317,3.472 6.666,4.211 6.838,5.068 6.838,6.04 6.838,8.006 6.277,9.51 5.155,10.552 4.033,11.593 2.315,12.114 0,12.114 l -9.333,0 L -9.333,0 0,0 Z m -10.027,-11.973 0,24.781 10.027,0 c 2.385,0 4.235,-0.567 5.553,-1.701 C 6.873,9.974 7.532,8.284 7.532,6.04 7.532,4.951 7.337,3.986 6.943,3.141 6.548,2.296 6.006,1.59 5.312,1.024 4.619,0.456 3.79,0.029 2.831,-0.26 1.87,-0.549 0.812,-0.693 -0.345,-0.693 l -8.988,0 0,-11.28 -0.694,0 z"
             style="fill:#373535;fill-opacity:1;fill-rule:nonzero;stroke:none"
             id="path74"
             inkscape:connector-curvature="0" /></g><g
           id="g76"
           transform="translate(123.7871,12.5283)"><path
             d="M 0,0 C 0.973,0 1.875,0.134 2.707,0.399 3.54,0.665 4.262,1.06 4.878,1.581 5.49,2.1 5.97,2.73 6.317,3.472 6.664,4.211 6.838,5.068 6.838,6.04 6.838,8.006 6.277,9.51 5.155,10.552 4.031,11.593 2.313,12.114 0,12.114 l -9.335,0 L -9.335,0 0,0 Z m -10.029,-11.973 0,24.781 10.029,0 c 2.383,0 4.233,-0.567 5.553,-1.701 C 6.873,9.974 7.53,8.284 7.53,6.04 7.53,4.951 7.335,3.986 6.942,3.141 6.548,2.296 6.004,1.59 5.31,1.024 4.616,0.456 3.788,0.029 2.829,-0.26 1.869,-0.549 0.81,-0.693 -0.347,-0.693 l -8.988,0 0,-11.28 -0.694,0 z"
             style="fill:#373535;fill-opacity:1;fill-rule:nonzero;stroke:none"
             id="path78"
             inkscape:connector-curvature="0" /></g><g
           id="g80"
           transform="translate(133.6094,12.9453)"><path
             d="m 0,0 c 0.021,-1.781 0.283,-3.425 0.779,-4.928 0.497,-1.505 1.204,-2.8 2.118,-3.888 0.914,-1.087 2.03,-1.938 3.35,-2.55 1.317,-0.614 2.812,-0.92 4.476,-0.92 1.667,0 3.158,0.306 4.478,0.92 1.318,0.612 2.434,1.463 3.35,2.55 0.914,1.088 1.617,2.383 2.116,3.888 0.498,1.503 0.756,3.147 0.781,4.928 -0.025,1.781 -0.283,3.424 -0.781,4.929 -0.499,1.504 -1.202,2.799 -2.116,3.887 -0.916,1.086 -2.032,1.937 -3.35,2.55 -1.32,0.614 -2.811,0.92 -4.478,0.92 -1.664,0 -3.159,-0.306 -4.476,-0.92 C 4.927,10.753 3.811,9.902 2.897,8.816 1.983,7.728 1.276,6.433 0.779,4.929 0.283,3.424 0.021,1.781 0,0 m -0.696,0 c 0,1.758 0.251,3.424 0.747,4.997 0.499,1.573 1.225,2.95 2.188,4.131 0.959,1.18 2.15,2.116 3.574,2.811 1.422,0.695 3.059,1.041 4.91,1.041 1.85,0 3.488,-0.346 4.912,-1.041 1.422,-0.695 2.612,-1.631 3.574,-2.811 C 20.168,7.947 20.898,6.57 21.395,4.997 21.894,3.424 22.142,1.758 22.142,0 c 0,-1.759 -0.248,-3.425 -0.747,-4.998 -0.497,-1.573 -1.227,-2.95 -2.186,-4.13 -0.962,-1.181 -2.152,-2.111 -3.574,-2.794 -1.424,-0.682 -3.062,-1.023 -4.912,-1.023 -1.851,0 -3.488,0.341 -4.91,1.023 -1.424,0.683 -2.615,1.613 -3.574,2.794 -0.963,1.18 -1.689,2.557 -2.188,4.13 -0.496,1.573 -0.747,3.239 -0.747,4.998"
             style="fill:#373535;fill-opacity:1;fill-rule:nonzero;stroke:none"
             id="path82"
             inkscape:connector-curvature="0" /></g><g
           id="g84"
           transform="translate(168.6621,12.8769)"><path
             d="m 0,0 c 0.925,0 1.809,0.113 2.656,0.347 0.843,0.231 1.589,0.6 2.237,1.111 0.647,0.508 1.168,1.149 1.562,1.925 0.393,0.775 0.59,1.705 0.59,2.794 -0.023,1.759 -0.556,3.13 -1.596,4.113 -1.041,0.982 -2.742,1.476 -5.102,1.476 l -9.614,0 L -9.267,0 0,0 Z m -9.961,-12.321 0,24.78 10.133,0 c 2.592,0 4.49,-0.516 5.692,-1.544 C 7.068,9.885 7.693,8.282 7.739,6.108 7.784,4.441 7.346,3.059 6.419,1.96 5.494,0.86 4.165,0.113 2.43,-0.278 l 0,-0.071 C 3.471,-0.487 4.315,-0.736 4.961,-1.095 5.61,-1.452 6.108,-1.922 6.455,-2.5 c 0.347,-0.578 0.579,-1.261 0.694,-2.047 0.116,-0.786 0.175,-1.68 0.175,-2.673 0,-0.346 0.009,-0.781 0.034,-1.302 0.022,-0.52 0.057,-1.036 0.104,-1.543 0.045,-0.51 0.102,-0.973 0.172,-1.389 0.071,-0.416 0.161,-0.706 0.277,-0.867 l -0.762,0 c -0.115,0.254 -0.209,0.594 -0.278,1.023 -0.069,0.429 -0.122,0.886 -0.156,1.371 -0.034,0.486 -0.059,0.978 -0.068,1.475 -0.014,0.497 -0.019,0.942 -0.019,1.337 0,1.016 -0.074,1.925 -0.226,2.723 -0.15,0.799 -0.457,1.47 -0.919,2.014 -0.463,0.542 -1.123,0.959 -1.978,1.25 -0.857,0.289 -2.002,0.433 -3.435,0.433 l -9.337,0 0,-11.626 -0.694,0 z"
             style="fill:#373535;fill-opacity:1;fill-rule:nonzero;stroke:none"
             id="path86"
             inkscape:connector-curvature="0" /></g><g
           id="g88"
           transform="translate(177.4761,25.3349)"><path
             d="m 0,0 18.499,0 0,-0.693 -8.919,0 0,-24.086 -0.694,0 0,24.086 L 0,-0.693 0,0 Z"
             style="fill:#373535;fill-opacity:1;fill-rule:nonzero;stroke:none"
             id="path90"
             inkscape:connector-curvature="0" /></g><g
           id="g92"
           transform="translate(210.4482,19.6084)"><path
             d="m 0,0 c 0.139,-0.392 0.353,-0.827 0.643,-1.301 0.288,-0.475 0.66,-1.012 1.109,-1.613 0.451,-0.604 0.989,-1.308 1.615,-2.118 0.486,0.346 1.028,0.729 1.63,1.146 0.602,0.416 1.162,0.872 1.684,1.37 0.519,0.497 0.96,1.047 1.319,1.65 0.356,0.6 0.537,1.26 0.537,1.977 0,0.602 -0.116,1.146 -0.348,1.633 C 7.959,3.229 7.641,3.639 7.236,3.975 6.831,4.31 6.368,4.57 5.847,4.756 5.327,4.94 4.777,5.033 4.199,5.033 3.598,5.033 3.031,4.946 2.499,4.772 1.966,4.6 1.498,4.345 1.092,4.008 0.688,3.673 0.369,3.269 0.139,2.794 -0.093,2.319 -0.209,1.781 -0.209,1.181 -0.209,0.787 -0.139,0.394 0,0 m 1.023,-7.322 c -0.753,-0.487 -1.44,-1.024 -2.066,-1.615 -0.624,-0.589 -1.14,-1.254 -1.543,-1.994 -0.406,-0.743 -0.606,-1.596 -0.606,-2.569 0,-0.88 0.185,-1.661 0.552,-2.344 0.37,-0.681 0.852,-1.255 1.442,-1.716 0.59,-0.463 1.273,-0.811 2.048,-1.042 0.775,-0.232 1.555,-0.346 2.342,-0.346 1.667,0 3.055,0.417 4.165,1.249 1.112,0.833 1.992,1.908 2.638,3.226 L 3.192,-5.934 C 2.499,-6.373 1.776,-6.837 1.023,-7.322 m 12.511,-11.731 -3.086,3.922 c -0.696,-1.273 -1.638,-2.337 -2.831,-3.194 -1.19,-0.855 -2.667,-1.283 -4.425,-1.283 -0.854,0 -1.712,0.138 -2.568,0.417 -0.855,0.277 -1.614,0.675 -2.273,1.196 -0.661,0.52 -1.197,1.158 -1.612,1.91 -0.419,0.752 -0.626,1.612 -0.626,2.585 0,1.018 0.207,1.926 0.626,2.725 0.415,0.797 0.948,1.52 1.594,2.17 0.648,0.646 1.365,1.231 2.152,1.751 0.786,0.52 1.551,1.011 2.292,1.475 -0.346,0.486 -0.73,0.989 -1.147,1.51 -0.417,0.521 -0.815,1.053 -1.198,1.597 -0.381,0.543 -0.7,1.098 -0.952,1.666 -0.255,0.566 -0.382,1.138 -0.382,1.717 0,0.81 0.149,1.504 0.451,2.082 0.301,0.578 0.687,1.053 1.162,1.423 0.474,0.37 1.012,0.649 1.613,0.834 0.603,0.185 1.215,0.277 1.841,0.277 0.694,0 1.348,-0.104 1.96,-0.312 C 6.739,5.206 7.276,4.905 7.738,4.513 8.201,4.118 8.565,3.639 8.833,3.071 9.098,2.505 9.23,1.851 9.23,1.111 9.23,0.278 9.053,-0.456 8.694,-1.093 8.334,-1.729 7.889,-2.307 7.357,-2.828 6.825,-3.348 6.235,-3.829 5.587,-4.269 4.938,-4.708 4.338,-5.136 3.784,-5.553 l 6.524,-8.26 c 0.231,0.508 0.437,1.134 0.624,1.875 0.185,0.74 0.254,1.574 0.21,2.498 l 0.694,0 c 0.022,-1.04 -0.059,-1.938 -0.245,-2.689 -0.186,-0.752 -0.449,-1.522 -0.796,-2.309 l 3.643,-4.615 -0.904,0 z"
             style="fill:#373535;fill-opacity:1;fill-rule:nonzero;stroke:none"
             id="path94"
             inkscape:connector-curvature="0" /></g><g
           id="g96"
           transform="translate(253.0674,1.249)"><path
             d="m 0,0 0,-0.693 -16.589,0 0,24.78 16.45,0 0,-0.694 -15.757,0 0,-10.829 14.819,0 0,-0.695 -14.819,0 L -15.896,0 0,0 Z"
             style="fill:#373535;fill-opacity:1;fill-rule:nonzero;stroke:none"
             id="path98"
             inkscape:connector-curvature="0" /></g><g
           id="g100"
           transform="translate(272.5352,25.3349)"><path
             d="m 0,0 -9.439,-24.779 -0.762,0 -9.685,24.779 0.66,0 9.372,-23.877 0.068,0 L -0.693,0 0,0 Z"
             style="fill:#373535;fill-opacity:1;fill-rule:nonzero;stroke:none"
             id="path102"
             inkscape:connector-curvature="0" /></g><g
           id="g104"
           transform="translate(290.376,1.249)"><path
             d="m 0,0 0,-0.693 -16.589,0 0,24.78 16.45,0 0,-0.694 -15.756,0 0,-10.829 14.818,0 0,-0.695 -14.818,0 L -15.895,0 0,0 Z"
             style="fill:#373535;fill-opacity:1;fill-rule:nonzero;stroke:none"
             id="path106"
             inkscape:connector-curvature="0" /></g><g
           id="g108"
           transform="translate(293.4639,25.3349)"><path
             d="m 0,0 16.935,-23.911 0.071,0 0,23.911 0.693,0 0,-24.779 -1.04,0 -16.935,23.912 -0.071,0 0,-23.912 -0.694,0 L -1.041,0 0,0 Z"
             style="fill:#373535;fill-opacity:1;fill-rule:nonzero;stroke:none"
             id="path110"
             inkscape:connector-curvature="0" /></g><g
           id="g112"
           transform="translate(312.4834,25.3349)"><path
             d="m 0,0 18.497,0 0,-0.693 -8.92,0 0,-24.086 -0.693,0 0,24.086 L 0,-0.693 0,0 Z"
             style="fill:#373535;fill-opacity:1;fill-rule:nonzero;stroke:none"
             id="path114"
             inkscape:connector-curvature="0" /></g><g
           id="g116"
           transform="translate(348.1084,21.6054)"><path
             d="M 0,0 C -0.429,0.867 -0.994,1.571 -1.701,2.116 -2.406,2.659 -3.246,3.047 -4.217,3.279 -5.19,3.51 -6.23,3.626 -7.341,3.626 c -0.855,0 -1.746,-0.087 -2.672,-0.261 -0.927,-0.173 -1.762,-0.48 -2.515,-0.92 -0.753,-0.439 -1.37,-1.022 -1.858,-1.752 -0.485,-0.728 -0.728,-1.649 -0.728,-2.758 0,-1.111 0.249,-2.002 0.745,-2.673 0.499,-0.671 1.147,-1.215 1.945,-1.63 0.798,-0.417 1.704,-0.742 2.725,-0.973 1.015,-0.231 2.058,-0.474 3.122,-0.728 1.156,-0.302 2.251,-0.591 3.28,-0.869 1.029,-0.278 1.926,-0.648 2.69,-1.11 0.764,-0.464 1.371,-1.077 1.822,-1.84 0.451,-0.763 0.677,-1.793 0.677,-3.089 0,-1.18 -0.256,-2.186 -0.764,-3.02 -0.508,-0.832 -1.18,-1.522 -2.014,-2.064 -0.832,-0.544 -1.768,-0.937 -2.809,-1.179 -1.041,-0.244 -2.095,-0.365 -3.159,-0.365 -1.413,0 -2.712,0.161 -3.906,0.486 -1.192,0.323 -2.22,0.838 -3.088,1.544 -0.868,0.705 -1.539,1.613 -2.013,2.724 -0.474,1.112 -0.7,2.452 -0.677,4.025 l 0.694,0 c 0,-1.481 0.22,-2.736 0.659,-3.764 0.441,-1.03 1.059,-1.869 1.859,-2.516 0.798,-0.649 1.746,-1.118 2.846,-1.406 1.097,-0.29 2.306,-0.434 3.626,-0.434 0.971,0 1.938,0.11 2.897,0.33 0.959,0.22 1.822,0.573 2.586,1.058 0.764,0.487 1.382,1.111 1.858,1.875 0.472,0.763 0.711,1.676 0.711,2.742 0,1.249 -0.273,2.238 -0.815,2.966 -0.544,0.73 -1.238,1.307 -2.084,1.737 -0.844,0.426 -1.781,0.751 -2.81,0.971 -1.031,0.219 -2.018,0.446 -2.969,0.676 -0.993,0.232 -1.99,0.474 -2.984,0.729 -0.995,0.255 -1.891,0.608 -2.689,1.058 -0.799,0.45 -1.442,1.053 -1.927,1.805 -0.485,0.752 -0.728,1.73 -0.728,2.934 0,1.226 0.254,2.249 0.764,3.071 0.508,0.82 1.168,1.474 1.978,1.961 0.809,0.485 1.717,0.832 2.724,1.041 1.006,0.208 2.006,0.312 3.001,0.312 1.227,0 2.355,-0.133 3.384,-0.4 1.029,-0.264 1.932,-0.693 2.709,-1.283 0.773,-0.591 1.391,-1.366 1.856,-2.325 0.463,-0.96 0.728,-2.135 0.798,-3.523 l -0.695,0 C 0.665,-1.938 0.428,-0.868 0,0"
             style="fill:#373535;fill-opacity:1;fill-rule:nonzero;stroke:none"
             id="path118"
             inkscape:connector-curvature="0" /></g></g></g></g></svg>